# xmcd CD database file
#
# Track frame offsets:
#	150
#	11301
#	25620
#	36897
#	50873
#	69502
#	83915
#	95993
#	110448
#	126400
#
# Disc length: 1896 seconds
#
# Revision: 0
# Processed by: cddbd v1.5.1PL0 Copyright (c) Steve Scherf et al.
# Submitted via: CDex 1.51
#
DISCID=8407660a
DTITLE=Black Gold - Black Gold
DYEAR=2002
DGENRE=Country
TTITLE0=Green Snakes On The Ceiling
TTITLE1=That's How I Got To Memphis
TTITLE2=Heart Over Mind
TTITLE3=King Of The Mountain
TTITLE4=Why Would I Say Goodbye
TTITLE5=Thinking Thing
TTITLE6=Undo The RIht
TTITLE7=Honky Tonk Healing
TTITLE8=A Man This Lonely
TTITLE9=The Bottle's Almost Gone
EXTD=YEAR: 2002
EXTT0=
EXTT1=
EXTT2=
EXTT3=
EXTT4=
EXTT5=
EXTT6=
EXTT7=
EXTT8=
EXTT9=
PLAYORDER=
